<svg xmlns="http://www.w3.org/2000/svg" id="logo" width="100%" height="100%" viewBox="0 0 48 48">
<defs xmlns="http://www.w3.org/2000/svg">
    <style>
        .cls-1 {
            fill: #2b3c8b;
            fill-rule: evenodd;
        }
    </style>
</defs>
<path xmlns="http://www.w3.org/2000/svg" class="cls-1" d="M376,76h46.853v39.032a4.418,4.418,0,0,1-4.615,4.158H408.3c0.173,0-8.873,4.719-8.873,4.81,0-.148-8.6-4.81-8.873-4.81h-9.939A4.418,4.418,0,0,1,376,115.032V76Zm26.722,24.145h-5.633a0.248,0.248,0,0,1-.293-0.264V98.76a0.248,0.248,0,0,1,.293-0.265h1.634V87.552H398.7l-4.634,10.373a1.2,1.2,0,0,1-2.145,0l-4.634-10.373h-0.048V98.5h1.633a0.26,0.26,0,0,1,.318.265v1.121a0.26,0.26,0,0,1-.318.264h-5.608a0.26,0.26,0,0,1-.317-0.264V98.76a0.26,0.26,0,0,1,.317-0.265h1.854V86.013h-1.854a0.259,0.259,0,0,1-.317-0.264V84.63a0.26,0.26,0,0,1,.317-0.265h3.755a1.145,1.145,0,0,1,1.146.748l3.634,7.91,1.145,2.77h0.1q0.683-1.716,1.122-2.726l3.656-7.955a1.164,1.164,0,0,1,1.17-.748h3.732a0.247,0.247,0,0,1,.293.265V85.75a0.246,0.246,0,0,1-.293.264h-1.878V98.5h1.878a0.247,0.247,0,0,1,.293.265v1.121a0.247,0.247,0,0,1-.293.264m1.126,10.488h-1.365a0.259,0.259,0,0,1-.317-0.264v-5.143a0.268,0.268,0,0,1,.317-0.285h1.536a0.256,0.256,0,0,1,.293.285v0.462a2.016,2.016,0,0,0,.561,1.109,7.031,7.031,0,0,0,1.121,1.132,5.038,5.038,0,0,0,1.5.759,6.3,6.3,0,0,0,2.035.319,5.268,5.268,0,0,0,2.939-.7,2.221,2.221,0,0,0,1.06-1.956,1.587,1.587,0,0,0-.6-1.242,4.431,4.431,0,0,0-1.548-.823q-0.952-.309-2.11-0.572t-2.315-.6a13.156,13.156,0,0,1-2.11-.813,4.123,4.123,0,0,1-1.549-1.318,3.368,3.368,0,0,1-.6-1.991,3.719,3.719,0,0,1,1.549-3.055,6.571,6.571,0,0,1,4.157-1.208q3.291,0,4.828,1.734L413.187,95.1a0.26,0.26,0,0,1,.317-0.264h1.365a0.247,0.247,0,0,1,.293.264v4.791a0.247,0.247,0,0,1-.293.264h-1.536a0.246,0.246,0,0,1-.292-0.264V99.271a2.506,2.506,0,0,0-1.122-1.825,5.08,5.08,0,0,0-3.292-.923,4.436,4.436,0,0,0-2.6.694,2.085,2.085,0,0,0-.987,1.768,1.713,1.713,0,0,0,.61,1.319,4.49,4.49,0,0,0,1.585.88q0.974,0.327,2.145.605t2.341,0.6a13.647,13.647,0,0,1,2.146.792,4.225,4.225,0,0,1,1.585,1.264,3.053,3.053,0,0,1,.61,1.9,3.939,3.939,0,0,1-1.537,3.188,7.138,7.138,0,0,1-4.583,1.251,7.566,7.566,0,0,1-3.707-.814,6.159,6.159,0,0,1-2.121-1.756l0.024,2.153a0.246,0.246,0,0,1-.293.264" transform="translate(-376 -76)"/>
</svg>